<mxfile host="app.diagrams.net" modified="2024-05-16T15:35:27.930Z" agent="Mozilla/5.0 (Windows NT 10.0; Win64; x64; rv:125.0) Gecko/20100101 Firefox/125.0" etag="moZepif0C7zPzojLTw5V" version="24.4.2" type="device">
  <diagram name="Page-1" id="6iL0zZdb1UXBClO7vo0i">
    <mxGraphModel dx="867" dy="540" grid="1" gridSize="10" guides="1" tooltips="1" connect="1" arrows="1" fold="1" page="1" pageScale="1" pageWidth="850" pageHeight="1100" math="0" shadow="0">
      <root>
        <mxCell id="0" />
        <mxCell id="1" parent="0" />
        <mxCell id="ko5nIw5XlUjQezfp-rK0-13" style="edgeStyle=orthogonalEdgeStyle;rounded=0;orthogonalLoop=1;jettySize=auto;html=1;exitX=0.25;exitY=0;exitDx=0;exitDy=0;entryX=0.25;entryY=1;entryDx=0;entryDy=0;endArrow=none;endFill=0;fillColor=#dae8fc;strokeColor=#6c8ebf;" edge="1" parent="1" source="ko5nIw5XlUjQezfp-rK0-3" target="ko5nIw5XlUjQezfp-rK0-8">
          <mxGeometry relative="1" as="geometry" />
        </mxCell>
        <mxCell id="ko5nIw5XlUjQezfp-rK0-17" value="B1" style="edgeLabel;html=1;align=center;verticalAlign=middle;resizable=0;points=[];" vertex="1" connectable="0" parent="ko5nIw5XlUjQezfp-rK0-13">
          <mxGeometry x="-0.0518" y="1" relative="1" as="geometry">
            <mxPoint as="offset" />
          </mxGeometry>
        </mxCell>
        <mxCell id="ko5nIw5XlUjQezfp-rK0-15" style="edgeStyle=orthogonalEdgeStyle;rounded=0;orthogonalLoop=1;jettySize=auto;html=1;exitX=0.75;exitY=0;exitDx=0;exitDy=0;entryX=0.75;entryY=1;entryDx=0;entryDy=0;endArrow=none;endFill=0;fillColor=#ffe6cc;strokeColor=#d79b00;" edge="1" parent="1" source="ko5nIw5XlUjQezfp-rK0-3" target="ko5nIw5XlUjQezfp-rK0-8">
          <mxGeometry relative="1" as="geometry" />
        </mxCell>
        <mxCell id="ko5nIw5XlUjQezfp-rK0-19" value="B3" style="edgeLabel;html=1;align=center;verticalAlign=middle;resizable=0;points=[];" vertex="1" connectable="0" parent="ko5nIw5XlUjQezfp-rK0-15">
          <mxGeometry x="-0.0696" relative="1" as="geometry">
            <mxPoint as="offset" />
          </mxGeometry>
        </mxCell>
        <mxCell id="ko5nIw5XlUjQezfp-rK0-16" style="edgeStyle=orthogonalEdgeStyle;rounded=0;orthogonalLoop=1;jettySize=auto;html=1;exitX=1;exitY=0;exitDx=0;exitDy=0;entryX=1;entryY=1;entryDx=0;entryDy=0;endArrow=none;endFill=0;" edge="1" parent="1" source="ko5nIw5XlUjQezfp-rK0-3" target="ko5nIw5XlUjQezfp-rK0-8">
          <mxGeometry relative="1" as="geometry" />
        </mxCell>
        <mxCell id="ko5nIw5XlUjQezfp-rK0-20" value="0v" style="edgeLabel;html=1;align=center;verticalAlign=middle;resizable=0;points=[];" vertex="1" connectable="0" parent="ko5nIw5XlUjQezfp-rK0-16">
          <mxGeometry x="0.0107" y="1" relative="1" as="geometry">
            <mxPoint as="offset" />
          </mxGeometry>
        </mxCell>
        <mxCell id="ko5nIw5XlUjQezfp-rK0-29" value="" style="edgeStyle=orthogonalEdgeStyle;rounded=0;orthogonalLoop=1;jettySize=auto;html=1;" edge="1" parent="1" source="ko5nIw5XlUjQezfp-rK0-3" target="ko5nIw5XlUjQezfp-rK0-7">
          <mxGeometry relative="1" as="geometry" />
        </mxCell>
        <mxCell id="ko5nIw5XlUjQezfp-rK0-3" value="" style="rounded=1;whiteSpace=wrap;html=1;fillColor=#ffe6cc;strokeColor=#FFC406;" vertex="1" parent="1">
          <mxGeometry x="135" y="470" width="120" height="60" as="geometry" />
        </mxCell>
        <mxCell id="ko5nIw5XlUjQezfp-rK0-4" value="&lt;div&gt;Linkimals FYK58&lt;/div&gt;&lt;div&gt;Mainboard&lt;br&gt;&lt;/div&gt;" style="text;html=1;align=center;verticalAlign=middle;whiteSpace=wrap;rounded=0;" vertex="1" parent="1">
          <mxGeometry x="165" y="485" width="60" height="30" as="geometry" />
        </mxCell>
        <mxCell id="ko5nIw5XlUjQezfp-rK0-46" style="edgeStyle=orthogonalEdgeStyle;rounded=0;orthogonalLoop=1;jettySize=auto;html=1;exitX=1;exitY=1;exitDx=0;exitDy=0;entryX=1;entryY=0.25;entryDx=0;entryDy=0;endArrow=none;endFill=0;" edge="1" parent="1" source="ko5nIw5XlUjQezfp-rK0-10" target="ko5nIw5XlUjQezfp-rK0-6">
          <mxGeometry relative="1" as="geometry">
            <Array as="points">
              <mxPoint x="697" y="485" />
            </Array>
          </mxGeometry>
        </mxCell>
        <mxCell id="ko5nIw5XlUjQezfp-rK0-50" value="0v, LED 0v" style="edgeLabel;html=1;align=center;verticalAlign=middle;resizable=0;points=[];" vertex="1" connectable="0" parent="ko5nIw5XlUjQezfp-rK0-46">
          <mxGeometry x="0.1789" y="1" relative="1" as="geometry">
            <mxPoint as="offset" />
          </mxGeometry>
        </mxCell>
        <mxCell id="ko5nIw5XlUjQezfp-rK0-51" style="edgeStyle=orthogonalEdgeStyle;rounded=0;orthogonalLoop=1;jettySize=auto;html=1;exitX=0;exitY=0;exitDx=0;exitDy=0;entryX=1;entryY=0.25;entryDx=0;entryDy=0;endArrow=none;endFill=0;fillColor=#d80073;strokeColor=#A50040;" edge="1" parent="1" source="ko5nIw5XlUjQezfp-rK0-10" target="ko5nIw5XlUjQezfp-rK0-1">
          <mxGeometry relative="1" as="geometry" />
        </mxCell>
        <mxCell id="ko5nIw5XlUjQezfp-rK0-52" value="Switch Sig, D7" style="edgeLabel;html=1;align=center;verticalAlign=middle;resizable=0;points=[];" vertex="1" connectable="0" parent="ko5nIw5XlUjQezfp-rK0-51">
          <mxGeometry x="0.0685" y="1" relative="1" as="geometry">
            <mxPoint as="offset" />
          </mxGeometry>
        </mxCell>
        <mxCell id="ko5nIw5XlUjQezfp-rK0-53" style="edgeStyle=orthogonalEdgeStyle;rounded=0;orthogonalLoop=1;jettySize=auto;html=1;exitX=0;exitY=1;exitDx=0;exitDy=0;entryX=1;entryY=0.75;entryDx=0;entryDy=0;endArrow=none;endFill=0;fillColor=#1ba1e2;strokeColor=#006EAF;" edge="1" parent="1" source="ko5nIw5XlUjQezfp-rK0-10" target="ko5nIw5XlUjQezfp-rK0-1">
          <mxGeometry relative="1" as="geometry" />
        </mxCell>
        <mxCell id="ko5nIw5XlUjQezfp-rK0-54" value="Switch LED, D8" style="edgeLabel;html=1;align=center;verticalAlign=middle;resizable=0;points=[];" vertex="1" connectable="0" parent="ko5nIw5XlUjQezfp-rK0-53">
          <mxGeometry x="0.0462" y="1" relative="1" as="geometry">
            <mxPoint as="offset" />
          </mxGeometry>
        </mxCell>
        <mxCell id="ko5nIw5XlUjQezfp-rK0-10" value="&lt;div&gt;Switch&lt;/div&gt;&lt;div&gt;&lt;br&gt;&lt;/div&gt;&lt;div&gt;&lt;br&gt;&lt;/div&gt;&lt;div&gt;SwitchLED&lt;br&gt;&lt;/div&gt;" style="ellipse;whiteSpace=wrap;html=1;aspect=fixed;fillColor=#f8cecc;strokeColor=#b85450;" vertex="1" parent="1">
          <mxGeometry x="595" y="270" width="120" height="120" as="geometry" />
        </mxCell>
        <mxCell id="ko5nIw5XlUjQezfp-rK0-11" value="" style="group;fillColor=none;strokeColor=#d79b00;" vertex="1" connectable="0" parent="1">
          <mxGeometry x="135" y="340" width="120" height="60" as="geometry" />
        </mxCell>
        <mxCell id="ko5nIw5XlUjQezfp-rK0-8" value="" style="rounded=1;whiteSpace=wrap;html=1;fillColor=#ffe6cc;strokeColor=#d79b00;" vertex="1" parent="ko5nIw5XlUjQezfp-rK0-11">
          <mxGeometry width="120" height="60" as="geometry" />
        </mxCell>
        <mxCell id="ko5nIw5XlUjQezfp-rK0-9" value="&lt;div&gt;FYK58&lt;/div&gt;&lt;div&gt;ButtonBoard_01&lt;/div&gt;&lt;div&gt;(1,2,3)&lt;br&gt;&lt;/div&gt;" style="text;html=1;align=center;verticalAlign=middle;whiteSpace=wrap;rounded=0;" vertex="1" parent="ko5nIw5XlUjQezfp-rK0-11">
          <mxGeometry x="30" y="15" width="60" height="30" as="geometry" />
        </mxCell>
        <mxCell id="ko5nIw5XlUjQezfp-rK0-12" value="" style="group;fillColor=#FFC406;" vertex="1" connectable="0" parent="1">
          <mxGeometry x="335" y="470" width="120" height="60" as="geometry" />
        </mxCell>
        <mxCell id="ko5nIw5XlUjQezfp-rK0-24" style="edgeStyle=orthogonalEdgeStyle;rounded=0;orthogonalLoop=1;jettySize=auto;html=1;exitX=0;exitY=0.5;exitDx=0;exitDy=0;endArrow=none;endFill=0;" edge="1" parent="ko5nIw5XlUjQezfp-rK0-12" source="ko5nIw5XlUjQezfp-rK0-6">
          <mxGeometry relative="1" as="geometry">
            <mxPoint x="-79.99999999999989" y="29.9375" as="targetPoint" />
          </mxGeometry>
        </mxCell>
        <mxCell id="ko5nIw5XlUjQezfp-rK0-27" value="0v" style="edgeLabel;html=1;align=center;verticalAlign=middle;resizable=0;points=[];" vertex="1" connectable="0" parent="ko5nIw5XlUjQezfp-rK0-24">
          <mxGeometry x="0.2041" relative="1" as="geometry">
            <mxPoint x="8" as="offset" />
          </mxGeometry>
        </mxCell>
        <mxCell id="ko5nIw5XlUjQezfp-rK0-6" value="" style="rounded=1;whiteSpace=wrap;html=1;fillColor=#ffe6cc;strokeColor=#d79b00;" vertex="1" parent="ko5nIw5XlUjQezfp-rK0-12">
          <mxGeometry width="120" height="60" as="geometry" />
        </mxCell>
        <mxCell id="ko5nIw5XlUjQezfp-rK0-7" value="&lt;div&gt;FYK58&lt;/div&gt;&lt;div&gt;ButtonBoard_02&lt;/div&gt;&lt;div&gt;(4,5)&lt;br&gt;&lt;/div&gt;" style="text;html=1;align=center;verticalAlign=middle;whiteSpace=wrap;rounded=0;" vertex="1" parent="ko5nIw5XlUjQezfp-rK0-12">
          <mxGeometry x="30" y="15" width="60" height="30" as="geometry" />
        </mxCell>
        <mxCell id="ko5nIw5XlUjQezfp-rK0-14" style="edgeStyle=orthogonalEdgeStyle;rounded=0;orthogonalLoop=1;jettySize=auto;html=1;exitX=0.5;exitY=0;exitDx=0;exitDy=0;entryX=0.5;entryY=1;entryDx=0;entryDy=0;endArrow=none;endFill=0;fillColor=#d5e8d4;strokeColor=#82b366;" edge="1" parent="1" source="ko5nIw5XlUjQezfp-rK0-3" target="ko5nIw5XlUjQezfp-rK0-8">
          <mxGeometry relative="1" as="geometry" />
        </mxCell>
        <mxCell id="ko5nIw5XlUjQezfp-rK0-18" value="B2" style="edgeLabel;html=1;align=center;verticalAlign=middle;resizable=0;points=[];" vertex="1" connectable="0" parent="ko5nIw5XlUjQezfp-rK0-14">
          <mxGeometry x="-0.0339" relative="1" as="geometry">
            <mxPoint as="offset" />
          </mxGeometry>
        </mxCell>
        <mxCell id="ko5nIw5XlUjQezfp-rK0-21" style="edgeStyle=orthogonalEdgeStyle;rounded=0;orthogonalLoop=1;jettySize=auto;html=1;exitX=0;exitY=0;exitDx=0;exitDy=0;entryX=0.006;entryY=0.968;entryDx=0;entryDy=0;entryPerimeter=0;endArrow=none;endFill=0;fillColor=#f8cecc;strokeColor=#b85450;" edge="1" parent="1" source="ko5nIw5XlUjQezfp-rK0-3" target="ko5nIw5XlUjQezfp-rK0-8">
          <mxGeometry relative="1" as="geometry">
            <Array as="points">
              <mxPoint x="135" y="398" />
            </Array>
          </mxGeometry>
        </mxCell>
        <mxCell id="ko5nIw5XlUjQezfp-rK0-22" value="3.3v" style="edgeLabel;html=1;align=center;verticalAlign=middle;resizable=0;points=[];" vertex="1" connectable="0" parent="ko5nIw5XlUjQezfp-rK0-21">
          <mxGeometry x="0.1721" y="1" relative="1" as="geometry">
            <mxPoint as="offset" />
          </mxGeometry>
        </mxCell>
        <mxCell id="ko5nIw5XlUjQezfp-rK0-23" style="edgeStyle=orthogonalEdgeStyle;rounded=0;orthogonalLoop=1;jettySize=auto;html=1;exitX=0;exitY=0.25;exitDx=0;exitDy=0;entryX=1;entryY=0.25;entryDx=0;entryDy=0;endArrow=none;endFill=0;fillColor=#e1d5e7;strokeColor=#9673a6;" edge="1" parent="1" source="ko5nIw5XlUjQezfp-rK0-6" target="ko5nIw5XlUjQezfp-rK0-3">
          <mxGeometry relative="1" as="geometry" />
        </mxCell>
        <mxCell id="ko5nIw5XlUjQezfp-rK0-26" value="B4" style="edgeLabel;html=1;align=center;verticalAlign=middle;resizable=0;points=[];" vertex="1" connectable="0" parent="ko5nIw5XlUjQezfp-rK0-23">
          <mxGeometry x="0.2313" y="-1" relative="1" as="geometry">
            <mxPoint x="9" y="1" as="offset" />
          </mxGeometry>
        </mxCell>
        <mxCell id="ko5nIw5XlUjQezfp-rK0-25" style="edgeStyle=orthogonalEdgeStyle;rounded=0;orthogonalLoop=1;jettySize=auto;html=1;exitX=0;exitY=0.75;exitDx=0;exitDy=0;entryX=1;entryY=0.75;entryDx=0;entryDy=0;endArrow=none;endFill=0;fillColor=#60a917;strokeColor=#2D7600;" edge="1" parent="1" source="ko5nIw5XlUjQezfp-rK0-6" target="ko5nIw5XlUjQezfp-rK0-3">
          <mxGeometry relative="1" as="geometry" />
        </mxCell>
        <mxCell id="ko5nIw5XlUjQezfp-rK0-28" value="B5" style="edgeLabel;html=1;align=center;verticalAlign=middle;resizable=0;points=[];" vertex="1" connectable="0" parent="ko5nIw5XlUjQezfp-rK0-25">
          <mxGeometry x="0.2781" y="-1" relative="1" as="geometry">
            <mxPoint x="11" y="1" as="offset" />
          </mxGeometry>
        </mxCell>
        <mxCell id="ko5nIw5XlUjQezfp-rK0-30" style="edgeStyle=orthogonalEdgeStyle;rounded=0;orthogonalLoop=1;jettySize=auto;html=1;exitX=0;exitY=0;exitDx=0;exitDy=0;jumpStyle=none;endArrow=none;endFill=0;fillColor=#f8cecc;strokeColor=#b85450;" edge="1" parent="1" source="ko5nIw5XlUjQezfp-rK0-1">
          <mxGeometry relative="1" as="geometry">
            <mxPoint x="135" y="350" as="targetPoint" />
            <Array as="points">
              <mxPoint x="75" y="270" />
              <mxPoint x="75" y="350" />
            </Array>
          </mxGeometry>
        </mxCell>
        <mxCell id="ko5nIw5XlUjQezfp-rK0-35" value="3.3v, 3.3v" style="edgeLabel;html=1;align=center;verticalAlign=middle;resizable=0;points=[];" vertex="1" connectable="0" parent="ko5nIw5XlUjQezfp-rK0-30">
          <mxGeometry x="-0.1679" y="-2" relative="1" as="geometry">
            <mxPoint as="offset" />
          </mxGeometry>
        </mxCell>
        <mxCell id="ko5nIw5XlUjQezfp-rK0-31" style="edgeStyle=orthogonalEdgeStyle;rounded=0;orthogonalLoop=1;jettySize=auto;html=1;exitX=0;exitY=0.25;exitDx=0;exitDy=0;entryX=0.25;entryY=0;entryDx=0;entryDy=0;endArrow=none;endFill=0;fillColor=#dae8fc;strokeColor=#6c8ebf;" edge="1" parent="1" source="ko5nIw5XlUjQezfp-rK0-1" target="ko5nIw5XlUjQezfp-rK0-8">
          <mxGeometry relative="1" as="geometry" />
        </mxCell>
        <mxCell id="ko5nIw5XlUjQezfp-rK0-36" value="B1, D2" style="edgeLabel;html=1;align=center;verticalAlign=middle;resizable=0;points=[];" vertex="1" connectable="0" parent="ko5nIw5XlUjQezfp-rK0-31">
          <mxGeometry x="0.0558" y="-2" relative="1" as="geometry">
            <mxPoint as="offset" />
          </mxGeometry>
        </mxCell>
        <mxCell id="ko5nIw5XlUjQezfp-rK0-32" style="edgeStyle=orthogonalEdgeStyle;rounded=0;orthogonalLoop=1;jettySize=auto;html=1;exitX=0;exitY=0.5;exitDx=0;exitDy=0;entryX=0.5;entryY=0;entryDx=0;entryDy=0;endArrow=none;endFill=0;fillColor=#d5e8d4;strokeColor=#82b366;" edge="1" parent="1" source="ko5nIw5XlUjQezfp-rK0-1" target="ko5nIw5XlUjQezfp-rK0-8">
          <mxGeometry relative="1" as="geometry" />
        </mxCell>
        <mxCell id="ko5nIw5XlUjQezfp-rK0-37" value="B2, D3" style="edgeLabel;html=1;align=center;verticalAlign=middle;resizable=0;points=[];" vertex="1" connectable="0" parent="ko5nIw5XlUjQezfp-rK0-32">
          <mxGeometry x="0.2618" y="-2" relative="1" as="geometry">
            <mxPoint as="offset" />
          </mxGeometry>
        </mxCell>
        <mxCell id="ko5nIw5XlUjQezfp-rK0-33" style="edgeStyle=orthogonalEdgeStyle;rounded=0;orthogonalLoop=1;jettySize=auto;html=1;exitX=0;exitY=0.75;exitDx=0;exitDy=0;entryX=0.75;entryY=0;entryDx=0;entryDy=0;endArrow=none;endFill=0;fillColor=#ffe6cc;strokeColor=#d79b00;" edge="1" parent="1" source="ko5nIw5XlUjQezfp-rK0-1" target="ko5nIw5XlUjQezfp-rK0-8">
          <mxGeometry relative="1" as="geometry">
            <Array as="points">
              <mxPoint x="225" y="315" />
            </Array>
          </mxGeometry>
        </mxCell>
        <mxCell id="ko5nIw5XlUjQezfp-rK0-38" value="B3, D4" style="edgeLabel;html=1;align=center;verticalAlign=middle;resizable=0;points=[];" vertex="1" connectable="0" parent="ko5nIw5XlUjQezfp-rK0-33">
          <mxGeometry x="0.236" y="1" relative="1" as="geometry">
            <mxPoint as="offset" />
          </mxGeometry>
        </mxCell>
        <mxCell id="ko5nIw5XlUjQezfp-rK0-34" style="edgeStyle=orthogonalEdgeStyle;rounded=0;orthogonalLoop=1;jettySize=auto;html=1;exitX=0;exitY=1;exitDx=0;exitDy=0;entryX=1;entryY=0.25;entryDx=0;entryDy=0;endArrow=none;endFill=0;" edge="1" parent="1" source="ko5nIw5XlUjQezfp-rK0-1" target="ko5nIw5XlUjQezfp-rK0-8">
          <mxGeometry relative="1" as="geometry" />
        </mxCell>
        <mxCell id="ko5nIw5XlUjQezfp-rK0-39" value="0v, Gnd" style="edgeLabel;html=1;align=center;verticalAlign=middle;resizable=0;points=[];" vertex="1" connectable="0" parent="ko5nIw5XlUjQezfp-rK0-34">
          <mxGeometry x="-0.0053" y="3" relative="1" as="geometry">
            <mxPoint x="-7" y="-3" as="offset" />
          </mxGeometry>
        </mxCell>
        <mxCell id="ko5nIw5XlUjQezfp-rK0-41" style="edgeStyle=orthogonalEdgeStyle;rounded=0;orthogonalLoop=1;jettySize=auto;html=1;exitX=0.25;exitY=1;exitDx=0;exitDy=0;entryX=0.25;entryY=0;entryDx=0;entryDy=0;endArrow=none;endFill=0;fillColor=#e1d5e7;strokeColor=#9673a6;" edge="1" parent="1" source="ko5nIw5XlUjQezfp-rK0-1" target="ko5nIw5XlUjQezfp-rK0-6">
          <mxGeometry relative="1" as="geometry" />
        </mxCell>
        <mxCell id="ko5nIw5XlUjQezfp-rK0-43" value="B4, D5" style="edgeLabel;html=1;align=center;verticalAlign=middle;resizable=0;points=[];" vertex="1" connectable="0" parent="ko5nIw5XlUjQezfp-rK0-41">
          <mxGeometry x="-0.3717" relative="1" as="geometry">
            <mxPoint as="offset" />
          </mxGeometry>
        </mxCell>
        <mxCell id="ko5nIw5XlUjQezfp-rK0-42" style="edgeStyle=orthogonalEdgeStyle;rounded=0;orthogonalLoop=1;jettySize=auto;html=1;exitX=0.75;exitY=1;exitDx=0;exitDy=0;entryX=0.5;entryY=0;entryDx=0;entryDy=0;endArrow=none;endFill=0;fillColor=#60a917;strokeColor=#2D7600;" edge="1" parent="1" source="ko5nIw5XlUjQezfp-rK0-1" target="ko5nIw5XlUjQezfp-rK0-6">
          <mxGeometry relative="1" as="geometry" />
        </mxCell>
        <mxCell id="ko5nIw5XlUjQezfp-rK0-44" value="B5, D6" style="edgeLabel;html=1;align=center;verticalAlign=middle;resizable=0;points=[];" vertex="1" connectable="0" parent="ko5nIw5XlUjQezfp-rK0-42">
          <mxGeometry x="-0.4891" y="1" relative="1" as="geometry">
            <mxPoint as="offset" />
          </mxGeometry>
        </mxCell>
        <mxCell id="ko5nIw5XlUjQezfp-rK0-47" style="edgeStyle=orthogonalEdgeStyle;rounded=0;orthogonalLoop=1;jettySize=auto;html=1;exitX=1;exitY=0;exitDx=0;exitDy=0;entryX=1;entryY=1;entryDx=0;entryDy=0;endArrow=none;endFill=0;" edge="1" parent="1" source="ko5nIw5XlUjQezfp-rK0-10" target="ko5nIw5XlUjQezfp-rK0-10">
          <mxGeometry relative="1" as="geometry">
            <Array as="points">
              <mxPoint x="697" y="250" />
              <mxPoint x="775" y="250" />
              <mxPoint x="775" y="410" />
              <mxPoint x="697" y="410" />
            </Array>
          </mxGeometry>
        </mxCell>
        <mxCell id="ko5nIw5XlUjQezfp-rK0-48" value="Switch 0v, LED 0v" style="edgeLabel;html=1;align=center;verticalAlign=middle;resizable=0;points=[];" vertex="1" connectable="0" parent="ko5nIw5XlUjQezfp-rK0-47">
          <mxGeometry x="0.2987" y="-1" relative="1" as="geometry">
            <mxPoint y="-57" as="offset" />
          </mxGeometry>
        </mxCell>
        <mxCell id="ko5nIw5XlUjQezfp-rK0-5" value="" style="group;fillColor=#DAE8FC;strokeColor=#6c8ebf;" vertex="1" connectable="0" parent="1">
          <mxGeometry x="325" y="270" width="120" height="60" as="geometry" />
        </mxCell>
        <mxCell id="ko5nIw5XlUjQezfp-rK0-1" value="" style="rounded=1;whiteSpace=wrap;html=1;fillColor=none;" vertex="1" parent="ko5nIw5XlUjQezfp-rK0-5">
          <mxGeometry width="120" height="60" as="geometry" />
        </mxCell>
        <mxCell id="ko5nIw5XlUjQezfp-rK0-2" value="Arduino Nano ESP32" style="text;html=1;align=center;verticalAlign=middle;whiteSpace=wrap;rounded=0;" vertex="1" parent="ko5nIw5XlUjQezfp-rK0-5">
          <mxGeometry x="20" y="10" width="80" height="40" as="geometry" />
        </mxCell>
        <mxCell id="ko5nIw5XlUjQezfp-rK0-64" style="edgeStyle=orthogonalEdgeStyle;rounded=0;orthogonalLoop=1;jettySize=auto;html=1;exitX=0.25;exitY=0;exitDx=0;exitDy=0;entryX=0;entryY=0.5;entryDx=0;entryDy=0;" edge="1" parent="1" source="ko5nIw5XlUjQezfp-rK0-61" target="ko5nIw5XlUjQezfp-rK0-3">
          <mxGeometry relative="1" as="geometry" />
        </mxCell>
        <mxCell id="ko5nIw5XlUjQezfp-rK0-61" value="&lt;h1 style=&quot;margin-top: 0px;&quot;&gt;FYK58 MainBoard&lt;br&gt;&lt;/h1&gt;&lt;p&gt;Reusing the FYK58 mainboard because it has a coolwave asia wireless comm daughter-board soldered to it, along with two 32bit microcontrollers that handle all the wireless communication between the Linkimals toys, pairing, and sending of button presses. This also means we keep the speaker functionality of the original toy, so the button will sing along with the toy it is connected to. &lt;br&gt;&lt;/p&gt;" style="text;html=1;whiteSpace=wrap;overflow=hidden;rounded=0;strokeColor=default;" vertex="1" parent="1">
          <mxGeometry x="10" y="550" width="230" height="200" as="geometry" />
        </mxCell>
        <mxCell id="ko5nIw5XlUjQezfp-rK0-66" style="edgeStyle=orthogonalEdgeStyle;rounded=0;orthogonalLoop=1;jettySize=auto;html=1;exitX=0.5;exitY=0;exitDx=0;exitDy=0;entryX=1;entryY=0.75;entryDx=0;entryDy=0;" edge="1" parent="1" source="ko5nIw5XlUjQezfp-rK0-65" target="ko5nIw5XlUjQezfp-rK0-6">
          <mxGeometry relative="1" as="geometry" />
        </mxCell>
        <mxCell id="ko5nIw5XlUjQezfp-rK0-65" value="&lt;h1 style=&quot;margin-top: 0px;&quot;&gt;FYK58 Button Sub Boards&lt;br&gt;&lt;/h1&gt;&lt;p&gt;Using the button sub boards as connection points, all 5 toy inputs are mapped to digital pins on the Arduino to be toggled by software. The inputs are Active low, so the Arduino is outputting 3.3v on each pin after initiation. &lt;br&gt;&lt;/p&gt;" style="text;html=1;whiteSpace=wrap;overflow=hidden;rounded=0;strokeColor=default;" vertex="1" parent="1">
          <mxGeometry x="325" y="560" width="315" height="120" as="geometry" />
        </mxCell>
        <mxCell id="ko5nIw5XlUjQezfp-rK0-69" style="edgeStyle=orthogonalEdgeStyle;rounded=0;orthogonalLoop=1;jettySize=auto;html=1;exitX=0.25;exitY=1;exitDx=0;exitDy=0;entryX=0.5;entryY=0;entryDx=0;entryDy=0;" edge="1" parent="1" source="ko5nIw5XlUjQezfp-rK0-68" target="ko5nIw5XlUjQezfp-rK0-10">
          <mxGeometry relative="1" as="geometry" />
        </mxCell>
        <mxCell id="ko5nIw5XlUjQezfp-rK0-68" value="&lt;h1 style=&quot;margin-top: 0px;&quot;&gt;Switch/LED&lt;/h1&gt;&lt;div&gt;The Switch has a built in LED that is wired separately to a digital pin for both debug and future functionality. It is a simple red led at this time, but will be upgraded to rgb in a future revision. &lt;br&gt;&lt;/div&gt;" style="text;html=1;whiteSpace=wrap;overflow=hidden;rounded=0;strokeColor=default;" vertex="1" parent="1">
          <mxGeometry x="565" y="20" width="180" height="160" as="geometry" />
        </mxCell>
        <mxCell id="ko5nIw5XlUjQezfp-rK0-71" style="edgeStyle=orthogonalEdgeStyle;rounded=0;orthogonalLoop=1;jettySize=auto;html=1;exitX=0.75;exitY=1;exitDx=0;exitDy=0;entryX=0.5;entryY=0;entryDx=0;entryDy=0;" edge="1" parent="1" source="ko5nIw5XlUjQezfp-rK0-70" target="ko5nIw5XlUjQezfp-rK0-1">
          <mxGeometry relative="1" as="geometry" />
        </mxCell>
        <mxCell id="ko5nIw5XlUjQezfp-rK0-70" value="&lt;h1 style=&quot;margin-top: 0px;&quot;&gt;Nano ESP32&lt;br&gt;&lt;/h1&gt;&lt;p&gt;The Arduino Nano ESP32 is the heart of the project, it hosts a webserver for setting which button output the switch is activating at any given time. It is the programmable component of this system. &lt;br&gt;&lt;/p&gt;" style="text;html=1;whiteSpace=wrap;overflow=hidden;rounded=0;strokeColor=default;" vertex="1" parent="1">
          <mxGeometry x="275" y="50" width="180" height="160" as="geometry" />
        </mxCell>
      </root>
    </mxGraphModel>
  </diagram>
</mxfile>
